<svg id="Group_80" data-name="Group 80" xmlns="http://www.w3.org/2000/svg" xmlns:xlink="http://www.w3.org/1999/xlink" width="64" height="54.41" viewBox="0 0 64 54.41">
  <defs>
    <clipPath id="clip-path">
      <rect id="Rectangle_41" data-name="Rectangle 41" width="64" height="54.41" fill="none"/>
    </clipPath>
  </defs>
  <g id="Group_79" data-name="Group 79" clip-path="url(#clip-path)">
    <path id="Path_66" data-name="Path 66" d="M0,27.191c.208-1.247.359-2.507.632-3.74A23.426,23.426,0,0,1,19.431,5.7c1.411-.228,2.857-.24,4.283-.384a1.352,1.352,0,0,0,.749-.323q2.063-1.955,4.084-3.956A3.281,3.281,0,0,1,32.039.179,30.34,30.34,0,0,1,41.8,5.211a3.7,3.7,0,0,1,1.554,3.577c-.208,2.092-.356,4.19-.5,6.288a1.4,1.4,0,0,0,.209.8,23.381,23.381,0,0,1,3.868,13.159c-.008,1.812,0,3.624,0,5.436v.716h.757q6.4,0,12.809,0A3.22,3.22,0,0,1,64,38.684q0,6.123,0,12.247a3.211,3.211,0,0,1-3.414,3.46,6.971,6.971,0,0,1-1.734-.143,3.147,3.147,0,0,1-2.324-3.115c-.02-1.018,0-2.037,0-3.1-.2-.021-.362-.051-.521-.052-2.874,0-5.749,0-8.623-.006-.316,0-.531.021-.627.415a7.348,7.348,0,0,1-7.422,5.994q-16.4.046-32.8,0A6.321,6.321,0,0,1,.1,49.042a1.216,1.216,0,0,0-.1-.226V27.191M17.069,52.23a2.573,2.573,0,0,0,.32.028c7.289,0,14.579.018,21.868-.006a5.281,5.281,0,0,0,5.528-5.558c.016-5.936,0-11.872.006-17.807a20.954,20.954,0,0,0-1.372-7.635A21.338,21.338,0,0,0,2.728,23.765c-.887,3.789-.515,7.624-.579,11.444,0,.031.041.063.078.116.153-.03.313-.075.476-.091,1.737-.166,3.186-.048,4.185,1.737a21.533,21.533,0,0,0,8.4,8.427,3.272,3.272,0,0,1,1.782,3.067c0,1.242,0,2.485,0,3.766M2.13,43.341c0,1.5-.007,3,0,4.5a4.212,4.212,0,0,0,4.221,4.4c2.455.067,4.912.028,7.369.014a1.063,1.063,0,0,0,1.2-1.194c.02-.791-.03-1.584.016-2.372A1.539,1.539,0,0,0,14,47.1a21.84,21.84,0,0,1-5.268-4.064,22.6,22.6,0,0,1-3.686-5.013c-.423-.784-1.061-.791-2.085-.655-.576.076-.826.56-.827,1.351q0,2.311,0,4.621m44.843-6V45.8h9.5V37.375H52.291a1.552,1.552,0,0,0-.028.178c0,.542,0,1.083-.006,1.625-.005.843-.4,1.341-1.055,1.345s-1.068-.5-1.074-1.333c0-.615,0-1.23,0-1.854ZM26.91,5.588a23.578,23.578,0,0,1,13.94,7.427c.136-1.634.257-3.147.39-4.659a1.285,1.285,0,0,0-.464-1.22,26.85,26.85,0,0,0-9.446-4.924,1.228,1.228,0,0,0-.989.123C29.2,3.353,28.11,4.437,26.91,5.588M58.655,37.33v10.7c0,.936,0,1.873,0,2.809.006,1.061.36,1.408,1.436,1.418q.156,0,.312,0c1.116-.008,1.463-.349,1.464-1.447q0-3.964,0-7.928c0-1.436.005-2.872,0-4.307,0-.723-.346-1.2-.964-1.236-.721-.046-1.446-.011-2.248-.011" transform="translate(0 0)" fill="#1e4569"/>
    <path id="Path_67" data-name="Path 67" d="M93.777,120.263A11.731,11.731,0,1,1,82.05,108.529a11.735,11.735,0,0,1,11.727,11.734m-2.14-.029a9.6,9.6,0,1,0-9.542,9.621,9.591,9.591,0,0,0,9.542-9.621" transform="translate(-58.573 -90.406)" fill="#1e4569"/>
    <path id="Path_68" data-name="Path 68" d="M25.525,78.9a19.243,19.243,0,0,1,14.3-18c.8-.2,1.4.069,1.554.709.156.658-.212,1.124-1.027,1.371C33.194,65.141,29.032,69.943,27.8,77.3a15.752,15.752,0,0,0-.138,1.929c-.037.853-.413,1.3-1.1,1.281-.657-.021-1.027-.487-1.03-1.3,0-.1,0-.208,0-.312" transform="translate(-21.263 -50.67)" fill="#1e4569"/>
    <path id="Path_69" data-name="Path 69" d="M212.911,253.328a4.26,4.26,0,0,1-8.52-.033,4.26,4.26,0,1,1,8.52.033m-2.133-.044a2.134,2.134,0,0,0-2.147-2.125,2.163,2.163,0,0,0-2.108,2.118,2.122,2.122,0,0,0,2.131,2.14,2.092,2.092,0,0,0,2.124-2.132" transform="translate(-170.26 -207.44)" fill="#1e4569"/>
    <path id="Path_70" data-name="Path 70" d="M135.226,59.543a1.062,1.062,0,0,1-1.1-1.036,1.1,1.1,0,0,1,1.068-1.08,1.063,1.063,0,0,1,1.048,1.022,1.025,1.025,0,0,1-1.02,1.094" transform="translate(-111.732 -47.837)" fill="#1e4569"/>
  </g>
</svg>
