<svg id="Group_78" data-name="Group 78" xmlns="http://www.w3.org/2000/svg" xmlns:xlink="http://www.w3.org/1999/xlink" width="64" height="63.711" viewBox="0 0 64 63.711">
  <defs>
    <clipPath id="clip-path">
      <rect id="Rectangle_40" data-name="Rectangle 40" width="64" height="63.711" fill="none"/>
    </clipPath>
  </defs>
  <g id="Group_77" data-name="Group 77" clip-path="url(#clip-path)">
    <path id="Path_57" data-name="Path 57" d="M0,6.658a19.811,19.811,0,0,1,.824-2.39A7.5,7.5,0,0,1,9.66.395,7.55,7.55,0,1,1,.119,8.946,3.943,3.943,0,0,0,0,8.532V6.658m7.535,6.631a5.693,5.693,0,0,0,5.682-5.612A5.654,5.654,0,0,0,1.91,7.624a5.689,5.689,0,0,0,5.626,5.665" transform="translate(-0.001 -0.086)" fill="#1e4569"/>
    <path id="Path_58" data-name="Path 58" d="M89.108,194.64a3.658,3.658,0,0,1,4.521-1.095c0-2.012-.012-3.964,0-5.916a3.411,3.411,0,0,1,2.032-3.249,3.5,3.5,0,0,1,4.982,2.847c.026.29.039.582.039.873q0,8.682,0,17.365a5.211,5.211,0,0,1-.04.747.863.863,0,0,1-.9.787.854.854,0,0,1-.905-.707,3.685,3.685,0,0,1-.064-.8q0-8.745,0-17.49a3.629,3.629,0,0,0-.062-.868,1.62,1.62,0,0,0-1.636-1.19,1.715,1.715,0,0,0-1.527,1.42,4.546,4.546,0,0,0-.026.686q0,6.215,0,12.43c0,.187.008.376-.006.562a.954.954,0,0,1-.952.959.935.935,0,0,1-.925-.983c-.02-1.332,0-2.665-.016-4a2.636,2.636,0,0,0-.141-.915,1.612,1.612,0,0,0-1.76-.992,1.63,1.63,0,0,0-1.339,1.58c-.02,1.082.028,2.167-.028,3.247a1.6,1.6,0,0,1-.436,1.025.881.881,0,0,1-1.429-.715c-.055-.892.037-1.8-.055-2.682a2.768,2.768,0,0,0-.559-1.385,1.342,1.342,0,0,0-1.608-.325,1.533,1.533,0,0,0-1.046,1.424c-.031,1.165-.019,2.331-.025,3.5,0,1-.309,1.465-.962,1.456s-.942-.481-.954-1.479a5.419,5.419,0,0,0-.088-1.3,1.629,1.629,0,0,0-1.676-1.132,1.608,1.608,0,0,0-1.456,1.481c.012,2.683.09,5.365.148,8.048,0,.207.061.412.067.619a.94.94,0,1,1-1.866.218,19.41,19.41,0,0,1-.253-2.418q-.057-3.122-.015-6.246A3.5,3.5,0,0,1,83,196.693c.094.034.192.059.289.088a3.612,3.612,0,0,1,5.817-2.14" transform="translate(-65.901 -155.237)" fill="#1e4569"/>
    <path id="Path_59" data-name="Path 59" d="M98.27,285.058c-1.723-.091-3.466-.043-5.163-.3a9.448,9.448,0,0,1-6.327-4.192,21.555,21.555,0,0,1-1.441-2.546c-.352-.676-.192-1.243.355-1.492s1.014.008,1.375.7a18.926,18.926,0,0,0,1.241,2.229,7.9,7.9,0,0,0,6.765,3.587c2.395,0,4.79-.033,7.183.009a6.582,6.582,0,0,0,6.434-4.174,16.431,16.431,0,0,0,1.489-6.335,14.884,14.884,0,0,1,1.023-5.6,1.743,1.743,0,0,0-.395-1.969,1.891,1.891,0,0,0-1.865-.607c-.041.008-.081.02-.121.029-.946.232-1.4.066-1.575-.569-.161-.6.2-1.046,1.122-1.277a3.709,3.709,0,0,1,3.769,1.068,3.471,3.471,0,0,1,.879,3.861,16.026,16.026,0,0,0-.938,5.245,17.6,17.6,0,0,1-2.087,7.761,8.309,8.309,0,0,1-7.784,4.493c-1.312-.006-2.624,0-3.935,0l0,.085" transform="translate(-71.828 -221.347)" fill="#1e4569"/>
    <path id="Path_60" data-name="Path 60" d="M163.684,15.115a7.557,7.557,0,1,1,7.534-7.558,7.555,7.555,0,0,1-7.534,7.558m-5.658-7.627a5.635,5.635,0,1,0,5.711-5.557,5.648,5.648,0,0,0-5.711,5.557" transform="translate(-131.677 -0.001)" fill="#1e4569"/>
    <path id="Path_61" data-name="Path 61" d="M319.762,15.268A7.543,7.543,0,0,1,319.15.2a7.179,7.179,0,0,1,7.169,3.833,7.265,7.265,0,0,1-.431,8.068.953.953,0,0,1-1.344.381.938.938,0,0,1-.236-1.411,5.93,5.93,0,0,0,1.06-2.956,5.454,5.454,0,0,0-2.482-5.073,5.318,5.318,0,0,0-5.52-.422,5.348,5.348,0,0,0-3.245,5.068,5.373,5.373,0,0,0,3.2,5.1,5.455,5.455,0,0,0,4.539.17c.155-.06.3-.145.458-.2a.961.961,0,0,1,1.3.505.888.888,0,0,1-.549,1.218c-1.067.371-2.168.646-3.255.961l-.052-.178" transform="translate(-263.344 -0.153)" fill="#1e4569"/>
    <path id="Path_62" data-name="Path 62" d="M156.115,153.61A7.55,7.55,0,0,1,171.192,153a7.437,7.437,0,0,1-2.368,6.125c-.6.577-1.145.619-1.574.149-.389-.427-.3-.979.253-1.526a5.646,5.646,0,0,0-5.926-9.381,5.665,5.665,0,0,0-2.769,8.115.973.973,0,0,1-.106,1.308.953.953,0,0,1-1.519-.316,7.658,7.658,0,0,1-1.068-3.86" transform="translate(-131.686 -123.183)" fill="#1e4569"/>
    <path id="Path_63" data-name="Path 63" d="M253.348,86.017a4.908,4.908,0,0,1-.577.841q-5.044,4.615-10.111,9.2a.966.966,0,0,1-1.487.03.992.992,0,0,1,.2-1.434q5.054-4.6,10.12-9.195c.346-.314.751-.532,1.18-.24a3.941,3.941,0,0,1,.671.794" transform="translate(-203.246 -71.772)" fill="#1e4569"/>
    <path id="Path_64" data-name="Path 64" d="M86.655,83.466a4.87,4.87,0,0,1,.877.518q4.912,4.71,9.8,9.444a.992.992,0,0,1,.156,1.483c-.421.423-.952.4-1.487-.119q-4.882-4.7-9.754-9.4c-.357-.344-.6-.752-.349-1.217.148-.275.476-.454.756-.707" transform="translate(-72.371 -70.405)" fill="#1e4569"/>
    <path id="Path_65" data-name="Path 65" d="M198.231,107.125c0-.562-.021-1.124.005-1.684a.993.993,0,0,1,.982-1.066.972.972,0,0,1,.922,1.062q.04,1.684,0,3.369a.95.95,0,0,1-.981,1.054c-.542-.016-.875-.391-.93-1.05,0-.041,0-.083,0-.125q0-.78,0-1.56h0" transform="translate(-167.205 -88.042)" fill="#1e4569"/>
  </g>
</svg>
