<svg id="Group_81" data-name="Group 81" xmlns="http://www.w3.org/2000/svg" xmlns:xlink="http://www.w3.org/1999/xlink" width="64" height="45.307" viewBox="0 0 64 45.307">
  <defs>
    <clipPath id="clip-path">
      <rect id="Rectangle_42" data-name="Rectangle 42" width="64" height="45.307" fill="none"/>
    </clipPath>
  </defs>
  <g id="Group_81-2" data-name="Group 81" clip-path="url(#clip-path)">
    <path id="Path_71" data-name="Path 71" d="M112.6,114.323c-4.83,0-9.77,0-14.908,0a5.211,5.211,0,0,1-5.362-3.817,5.183,5.183,0,0,1,4.483-6.568c.334-.028.694-.054,1.06-.054h11.814c8.272,0,16.829,0,25.243-.008h.009a5.284,5.284,0,0,1,4.7,2.165,6.835,6.835,0,0,1,.716,1.454c.073.185.141.359.214.52l.1.232v1.614l-.04.151a5.148,5.148,0,0,1-2.913,3.748,6.9,6.9,0,0,1-2.6.546c-7.44.016-14.835.021-22.514.021m-4.158-8.066H97.878c-.263,0-.534.018-.861.046a2.806,2.806,0,0,0-2.4,3.525,2.867,2.867,0,0,0,3.083,2.112c13.3.007,25.3.01,37.415-.016a4.538,4.538,0,0,0,1.683-.359,2.783,2.783,0,0,0,1.5-2.026v-.8c-.054-.129-.1-.257-.153-.382a4.955,4.955,0,0,0-.455-.965,2.974,2.974,0,0,0-2.745-1.146h-.008c-8.415.008-16.969.007-25.245.008Z" transform="translate(-76.675 -86.447)" fill="#1e4569"/>
    <path id="Path_72" data-name="Path 72" d="M112.44,18.28c-4.953,0-9.877,0-14.736,0a5.215,5.215,0,0,1-5.368-3.813,5.184,5.184,0,0,1,4.547-6.582c.353-.026.648-.038.928-.038h10.561c8.723,0,17.744,0,26.615-.009H135a5.234,5.234,0,0,1,4.637,2.149,6.822,6.822,0,0,1,.721,1.451c.073.184.142.358.215.519l.106.234V13.8l-.039.147a5.119,5.119,0,0,1-2.843,3.726,6.884,6.884,0,0,1-2.668.587c-7.545.017-15.149.022-22.685.022m-9.313-8.06H97.81c-.221,0-.46.01-.754.032a2.808,2.808,0,0,0-2.44,3.537A2.871,2.871,0,0,0,97.7,15.9c12.249.005,24.914.011,37.414-.018a4.523,4.523,0,0,0,1.722-.388,2.755,2.755,0,0,0,1.455-2v-.8c-.054-.128-.1-.254-.153-.378a4.917,4.917,0,0,0-.457-.962A2.957,2.957,0,0,0,135,10.212h-.009c-8.873.01-17.894.01-26.618.009h-5.244" transform="translate(-76.675 -6.52)" fill="#1e4569"/>
    <path id="Path_73" data-name="Path 73" d="M109.5,210.414H97.479a5.13,5.13,0,0,1-4.981-3.107,5.02,5.02,0,0,1,.874-5.572,5.311,5.311,0,0,1,4.214-1.755h.03q2.5.009,4.992,0h9.533c7.442,0,15.137,0,22.7-.007h.013a5.28,5.28,0,0,1,4.693,2.169,6.759,6.759,0,0,1,.716,1.46c.072.185.14.359.212.521l.1.231v1.617l-.042.155a5.18,5.18,0,0,1-2.852,3.7,6.6,6.6,0,0,1-2.549.565c-8.529.018-17.183.021-25.64.021m-4.048-2.378c9.729,0,19.789,0,29.683-.021a4.236,4.236,0,0,0,1.6-.368,2.77,2.77,0,0,0,1.467-2v-.795c-.054-.13-.1-.259-.152-.384a4.872,4.872,0,0,0-.451-.964,2.969,2.969,0,0,0-2.741-1.15h-.011c-7.57.009-15.265.008-22.708.007H102.61q-2.5,0-5,0h-.022a2.968,2.968,0,0,0-2.418.937,2.655,2.655,0,0,0-.5,3.048,2.74,2.74,0,0,0,2.807,1.693Z" transform="translate(-76.582 -166.429)" fill="#1e4569"/>
    <path id="Path_74" data-name="Path 74" d="M6.533,13.076a6.469,6.469,0,0,1-4.591-1.921A6.485,6.485,0,0,1,0,6.527,6.591,6.591,0,0,1,6.489,0,6.423,6.423,0,0,1,11.1,1.86,6.523,6.523,0,0,1,13.088,6.5,6.456,6.456,0,0,1,11.2,11.111a6.517,6.517,0,0,1-4.634,1.965h-.03m.052-10.7H6.525A4.2,4.2,0,0,0,2.383,6.531,4.147,4.147,0,0,0,9.5,9.441a4.094,4.094,0,0,0,1.206-2.922A4.162,4.162,0,0,0,9.439,3.56,4.067,4.067,0,0,0,6.586,2.378" transform="translate(-0.004 0)" fill="#1e4569"/>
    <path id="Path_75" data-name="Path 75" d="M6.542,205.21a6.49,6.49,0,0,1-4.615-1.927A6.543,6.543,0,0,1,6.58,192.135a6.6,6.6,0,0,1,6.508,6.507,6.449,6.449,0,0,1-1.892,4.613,6.508,6.508,0,0,1-4.636,1.955H6.542Zm-.027-10.7a4.075,4.075,0,0,0-2.872,1.206,4.151,4.151,0,0,0-1.261,2.955,4.193,4.193,0,0,0,4.16,4.159h.011a4.147,4.147,0,0,0,2.952-1.25,4.087,4.087,0,0,0,1.2-2.921,4.211,4.211,0,0,0-4.154-4.149h-.04" transform="translate(-0.004 -159.903)" fill="#1e4569"/>
    <path id="Path_76" data-name="Path 76" d="M6.616,109.186l-.156,0A6.52,6.52,0,0,1,2.073,97.9a6.354,6.354,0,0,1,4.591-1.771,6.661,6.661,0,0,1,4.609,2.024,6.338,6.338,0,0,1,1.808,4.64,6.554,6.554,0,0,1-6.465,6.4M6.469,98.5a4,4,0,0,0-2.761,1.123,4.224,4.224,0,0,0-1.33,2.988,4.163,4.163,0,0,0,8.326.1A3.98,3.98,0,0,0,9.564,99.8a4.3,4.3,0,0,0-2.974-1.3l-.121,0" transform="translate(0 -79.997)" fill="#1e4569"/>
  </g>
</svg>
